<svg height="512pt" viewBox="0 0 512 512" width="512pt" xmlns="http://www.w3.org/2000/svg"><path d="m416 512h-320c-53.023438 0-96-42.976562-96-96v-320c0-53.023438 42.976562-96 96-96h320c53.023438 0 96 42.976562 96 96v320c0 53.023438-42.976562 96-96 96zm0 0" fill="#e3f8fa"/><path d="m384 306.078125c0 2.449219-1.617188 4.5625-3.839844 5.28125l-51.808594 16.976563-16.976562 51.808593c-.71875 2.238281-2.847656 3.855469-5.296875 3.855469-2.398437 0-4.398437-1.503906-5.167969-3.566406l-44.527344-116.867188c-.269531-.605468-.382812-1.277344-.382812-2 0-3.054687 2.496094-5.566406 5.566406-5.566406.722656 0 1.394532.113281 2 .382812l116.867188 44.527344c2.0625.785156 3.566406 2.785156 3.566406 5.167969zm0 0" fill="#26c6da"/><g fill="#8ce1eb"><path d="m245.328125 362.671875c-64.6875 0-117.328125-52.640625-117.328125-117.328125s52.640625-117.34375 117.328125-117.34375 117.328125 52.640625 117.328125 117.328125c0 5.230469-.335938 10.367187-1.023438 15.265625-.800781 5.820312-6.015624 9.917969-12.015624 9.117188-5.839844-.800782-9.921876-6.191407-9.105469-12.015626.542969-3.933593.816406-8.09375.816406-12.351562 0-52.929688-43.054687-96-96-96s-96 43.070312-96 96 43.054687 96 96 96c4.222656 0 8.382813-.273438 12.382813-.816406 5.875-.765625 11.21875 3.296875 12.015624 9.136718.785157 5.839844-3.292968 11.214844-9.132812 12-4.945312.671876-10.082031 1.007813-15.265625 1.007813zm0 0"/><path d="m240.273438 309.167969c-.335938 0-.671876-.015625-1.007813-.046875-33.121094-3.074219-58.097656-30.511719-58.097656-63.808594 0-35.375 28.769531-64.144531 64.144531-64.144531 33.40625 0 60.847656 25.039062 63.808594 58.238281.527344 5.875-3.808594 11.058594-9.679688 11.585938-6.015625.382812-11.042968-3.808594-11.570312-9.664063-1.984375-22.128906-20.285156-38.800781-42.558594-38.800781-23.601562 0-42.816406 19.199218-42.816406 42.816406 0 22.207031 16.65625 40.511719 38.734375 42.558594 5.875.546875 10.175781 5.746094 9.632812 11.617187-.496093 5.503907-5.152343 9.648438-10.589843 9.648438zm0 0"/></g></svg>