<svg height="512pt" viewBox="0 0 512 512" width="512pt" xmlns="http://www.w3.org/2000/svg"><path d="m416 512h-320c-53.023438 0-96-42.976562-96-96v-320c0-53.023438 42.976562-96 96-96h320c53.023438 0 96 42.976562 96 96v320c0 53.023438-42.976562 96-96 96zm0 0" fill="#fff9dd"/><path d="m266.671875 314.671875c-5.871094 0-10.671875-4.800781-10.671875-10.671875 0-1.601562.320312-3.089844.960938-4.480469l20.367187-43.519531-20.367187-43.519531c-.640626-1.390625-.960938-2.878907-.960938-4.480469 0-5.871094 4.800781-10.671875 10.671875-10.671875 1.601563 0 2.992187.320313 4.367187.960937l106.671876 48c3.730468 1.597657 6.289062 5.34375 6.289062 9.710938s-2.558594 8.113281-6.289062 9.710938l-106.671876 48c-1.390624.640624-2.765624.960937-4.367187.960937zm0 0" fill="#ffd200"/><path d="m128 256c0-64.703125 52.640625-117.328125 117.328125-117.328125 35.582031 0 68.734375 15.839844 90.976563 43.457031 3.710937 4.589844 2.976562 11.296875-1.617188 15.007813-4.589844 3.679687-11.3125 2.976562-15.007812-1.632813-18.160157-22.558594-45.246094-35.503906-74.351563-35.503906-52.929687 0-96 43.054688-96 96s43.070313 96 96 96c29.085937 0 56.191406-12.945312 74.351563-35.488281 3.695312-4.589844 10.417968-5.3125 15.007812-1.632813 4.578125 3.714844 5.3125 10.417969 1.617188 15.007813-22.242188 27.617187-55.394532 43.457031-90.976563 43.457031-64.6875-.015625-117.328125-52.640625-117.328125-117.34375zm0 0" fill="#ffe777"/></svg>