<svg height="512pt" viewBox="0 0 512 512" width="512pt" xmlns="http://www.w3.org/2000/svg"><path d="m416 512h-320c-53.023438 0-96-42.976562-96-96v-320c0-53.023438 42.976562-96 96-96h320c53.023438 0 96 42.976562 96 96v320c0 53.023438-42.976562 96-96 96zm0 0" fill="#fff9dd"/><path d="m300.449219 255.777344-69.777344 69.773437c-.703125.707031-1.199219 1.585938-1.425781 2.5625l-11.628906 49.34375c-.417969 1.789063.109374 3.679688 1.421874 4.992188 1.023438 1.007812 2.386719 1.550781 3.777344 1.550781.398438 0 .816406-.046875 1.214844-.144531l49.34375-11.632813c.960938-.222656 1.839844-.71875 2.546875-1.421875l69.773437-69.777343zm0 0" fill="#ffd200"/><path d="m377.742188 238.816406-15.085938-15.089844c-8.0625-8.0625-22.113281-8.0625-30.175781 0l-20.738281 20.738282 45.265624 45.261718 20.734376-20.734374c4.035156-4.03125 6.257812-9.390626 6.257812-15.089844 0-5.710938-2.222656-11.054688-6.257812-15.085938zm0 0" fill="#ffd200"/><path d="m320 170.671875c-5.886719 0-10.671875 4.785156-10.671875 10.671875v21.328125c0 5.886719 4.785156 10.671875 10.671875 10.671875s10.671875-4.785156 10.671875-10.671875v-21.328125c0-5.902344-4.785156-10.671875-10.671875-10.671875zm0 0" fill="#ffe777"/><path d="m283.40625 224h-43.40625v-32c0-5.886719-4.785156-10.671875-10.671875-10.671875s-10.65625 4.785156-10.65625 10.671875v32h-69.34375v-45.328125c0-5.886719-4.785156-10.671875-10.671875-10.671875s-10.65625 4.769531-10.65625 10.671875v146.671875c0 14.6875 11.96875 26.65625 26.671875 26.65625h46.289063c5.886718 0 10.671874-4.785156 10.671874-10.671875s-4.785156-10.671875-10.671874-10.671875h-46.289063c-2.945313 0-5.328125-2.382812-5.328125-5.328125v-26.671875h80c5.886719.015625 10.65625-4.769531 10.65625-10.65625v-42.671875h43.40625c5.890625 0 10.671875-4.785156 10.671875-10.671875s-4.765625-10.65625-10.671875-10.65625zm-134.078125 21.328125h69.328125v32h-69.328125zm0 0" fill="#ffe777"/><path d="m306.671875 128h-154.671875c-13.246094 0-24 10.753906-24 24v40h202.671875v-40c0-13.246094-10.75-24-24-24zm0 0" fill="#ffd200"/></svg>