<svg id="bold" height="512" viewBox="0 0 32 32" width="512" xmlns="http://www.w3.org/2000/svg"><path d="m6 0h20c3.314 0 6 2.686 6 6v20c0 3.314-2.686 6-6 6h-20c-3.314 0-6-2.686-6-6v-20c0-3.314 2.686-6 6-6z" fill="#ffe6e2"/><g fill="#fc573b"><path d="m22.667 22h-4c-.369 0-.667-.298-.667-.667s.299-.667.667-.667h4l-1.999-9.327-3.335-.006c-.368 0-.667-.299-.667-.667s.299-.666.667-.666h3.333c.636 0 1.186.451 1.308 1.072l1.998 9.322c.02.129.028.196.028.273 0 .735-.598 1.333-1.333 1.333z"/><path d="m20 22h-10.667c-.735 0-1.333-.598-1.333-1.333 0-.076.008-.144.019-.219l2.009-9.388c.119-.609.669-1.06 1.305-1.06h6.667c.636 0 1.186.451 1.308 1.072l1.998 9.322c.02.13.028.197.028.273-.001.735-.599 1.333-1.334 1.333zm-8.667-10.667-2.001 9.34 10.666-.006-1.997-9.327z"/><path d="m14.667 17.333c-1.47 0-2.667-1.196-2.667-2.667v-1.333c0-.368.299-.667.667-.667s.667.299.667.667v1.333c0 .735.598 1.333 1.333 1.333s1.333-.597 1.333-1.332v-1.333c0-.368.299-.667.667-.667s.667.299.667.667v1.333c-.001 1.47-1.197 2.666-2.667 2.666z"/></g></svg>