<svg id="Layer_1" enable-background="new 0 0 511.305 511.305" height="512" viewBox="0 0 511.305 511.305" width="512" xmlns="http://www.w3.org/2000/svg" xmlns:xlink="http://www.w3.org/1999/xlink"><linearGradient id="SVGID_1_" gradientUnits="userSpaceOnUse" x1="38.646" x2="472.659" y1="255.653" y2="255.653"><stop offset="0" stop-color="#9dd6fc"/><stop offset="1" stop-color="#d17ff7"/></linearGradient><path d="m466.802 126.163c-3.751-3.75-8.838-5.858-14.143-5.858h-61.827c-21.955-160.466-248.462-160.348-270.356 0h-61.826c-10.745-.212-20.212 9.256-20 20l.004 351c0 11.045 8.955 20 20 20h394c11.046 0 20-8.954 20-20l.005-351c0-5.304-2.107-10.391-5.857-14.142zm-211.148-86.858c47.833 0 87.607 35.165 94.829 81h-189.658c7.222-45.835 46.996-81 94.829-81zm177 432h-354l-.003-311h41.004v60c1.056 26.536 38.953 26.516 40 0v-60h192v60c1.056 26.536 38.953 26.516 40 0v-60h41.005zm-157-158c0 11.046-8.954 20-20 20-26.53-1.053-26.522-38.951 0-40 11.046 0 20 8.955 20 20zm0 80c0 11.046-8.954 20-20 20-26.53-1.053-26.522-38.951 0-40 11.046 0 20 8.955 20 20zm80-80c0 11.046-8.954 20-20 20-26.53-1.053-26.522-38.951 0-40 11.046 0 20 8.955 20 20zm0 80c0 11.046-8.954 20-20 20-26.53-1.053-26.522-38.951 0-40 11.046 0 20 8.955 20 20zm-160-80c0 11.046-8.954 20-20 20-26.53-1.053-26.522-38.951 0-40 11.046 0 20 8.955 20 20zm0 80c0 11.046-8.954 20-20 20-26.53-1.053-26.522-38.951 0-40 11.046 0 20 8.955 20 20z" fill="url(#SVGID_1_)"/></svg>