<svg height="512pt" viewBox="0 0 512 512" width="512pt" xmlns="http://www.w3.org/2000/svg"><path d="m416 512h-320c-53.023438 0-96-42.976562-96-96v-320c0-53.023438 42.976562-96 96-96h320c53.023438 0 96 42.976562 96 96v320c0 53.023438-42.976562 96-96 96zm0 0" fill="#f5e6fe"/><path d="m304 224c-44.113281 0-80 35.886719-80 80s35.886719 80 80 80 80-35.886719 80-80-35.886719-80-80-80zm29.328125 90.671875h-58.671875c-5.886719 0-10.671875-4.785156-10.671875-10.671875s4.785156-10.671875 10.671875-10.671875h58.671875c5.886719 0 10.671875 4.785156 10.671875 10.671875s-4.769531 10.671875-10.671875 10.671875zm0 0" fill="#be63f9"/><path d="m256 178.078125c0 2.449219-1.617188 4.5625-3.839844 5.28125l-51.808594 16.976563-16.976562 51.808593c-.71875 2.238281-2.847656 3.855469-5.296875 3.855469-2.398437 0-4.398437-1.503906-5.167969-3.566406l-44.527344-116.867188c-.269531-.605468-.382812-1.277344-.382812-2 0-3.070312 2.496094-5.566406 5.566406-5.566406.722656 0 1.394532.113281 2 .382812l116.867188 44.527344c2.0625.785156 3.566406 2.785156 3.566406 5.167969zm0 0" fill="#d9a4fc"/></svg>