<svg height="512pt" viewBox="0 0 512 512" width="512pt" xmlns="http://www.w3.org/2000/svg"><path d="m416 512h-320c-53.023438 0-96-42.976562-96-96v-320c0-53.023438 42.976562-96 96-96h320c53.023438 0 96 42.976562 96 96v320c0 53.023438-42.976562 96-96 96zm0 0" fill="#f5e6fe"/><path d="m255.871094 138.671875c61.199218 0 111.394531 46.863281 116.800781 106.671875h-95.457031v-32c0-4.320312-2.589844-8.207031-6.574219-9.855469-3.984375-1.648437-8.578125-.734375-11.632813 2.320313l-42.671874 42.671875c-4.160157 4.160156-4.160157 10.910156 0 15.085937l42.671874 42.671875c3.054688 3.058594 7.632813 3.96875 11.632813 2.320313 3.984375-1.648438 6.574219-5.535156 6.574219-9.855469v-32h95.457031c-5.390625 59.792969-55.601563 106.671875-116.800781 106.671875-64.800782 0-117.328125-52.527344-117.328125-117.328125s52.511719-117.375 117.328125-117.375zm0 0" fill="#be63f9"/></svg>