<svg id="Layer_1" enable-background="new 0 0 511.64 511.64" height="512" viewBox="0 0 511.64 511.64" width="512" xmlns="http://www.w3.org/2000/svg" xmlns:xlink="http://www.w3.org/1999/xlink"><linearGradient id="SVGID_1_" gradientUnits="userSpaceOnUse" x1=".013" x2="511.626" y1="255.82" y2="255.82"><stop offset="0" stop-color="#87f1fc"/><stop offset=".2557" stop-color="#7fd4fb"/><stop offset=".5295" stop-color="#78bcfb"/><stop offset=".7844" stop-color="#74aefa"/><stop offset="1" stop-color="#73a9fa"/></linearGradient><path d="m511.626 243.64c0 39.887-21.776 77.523-56.831 98.222-23.377 12.58-42.644-20.05-20.338-34.443 50.276-29.078 48.901-102.414-2.207-129.192-6.537-3.47-10.624-10.266-10.624-17.666v-24.598c-3.761-118.727-169.4-131.088-191.5-14.892-2.481 16.618-23.714 22.826-34.758 10.173-29.631-33.674-85.748-12.46-85.741 32.396v36c0 11.046-8.954 20-20 20h-.154c-58.685 1.018-68.511 82.53-12.503 96.845 10.782 2.397 17.579 13.083 15.181 23.865-2.352 10.858-13.363 17.603-23.865 15.18-92.156-21.863-90.334-152.598 1.342-173.702v-18.188c-.579-65.766 71.326-109.695 129.47-79.249 59.082-137.163 259.594-97.97 262.53 51.571v13.324c31.118 21.091 49.998 56.221 49.998 94.354zm-124 17v171c0 44.112-35.888 80-80 80h-100c-44.112 0-80-35.888-80-80v-125.148c0-21.369 8.322-41.459 23.432-56.568l45.852-45.853c15.11-15.11 35.2-23.432 56.569-23.432h54.147c44.113.001 80 35.888 80 80.001zm-40 0c0-22.056-17.944-40-40-40h-54.147c-10.685 0-20.729 4.161-28.285 11.716l-45.852 45.853c-3.37 3.37-6.064 7.235-8.015 11.432h54.235c5.549 0 10.064-4.515 10.064-10.063 0-11.046 8.954-20 20-20s20 8.954 20 20c0 27.605-22.458 50.063-50.064 50.063h-57.936v102c0 22.056 17.944 40 40 40h100c22.056 0 40-17.944 40-40z" fill="url(#SVGID_1_)"/></svg>