<svg id="Layer_1" enable-background="new 0 0 512.001 512.001" height="512" viewBox="0 0 512.001 512.001" width="512" xmlns="http://www.w3.org/2000/svg"><path d="m452.89 225.88c-.006-.053-.012-.106-.018-.159l54.727-68.198c4.154-5.177 5.47-12.077 3.511-18.42-1.959-6.342-6.937-11.299-13.286-13.231l-46-14c-10.565-3.217-21.74 2.743-24.957 13.311-3.216 10.567 2.743 21.74 13.311 24.957l17.73 5.396-46.383 57.8-22.525 6.425v-139.756c0-44.112-35.888-80-80-80h-61.147c-21.368 0-41.458 8.321-56.568 23.431l-45.854 45.854c-15.109 15.11-23.431 35.2-23.431 56.568v93.392l-21.797-6.254-46.11-57.46 17.73-5.396c10.567-3.217 16.526-14.39 13.311-24.957-3.217-10.567-14.386-16.52-24.957-13.311l-46 14c-6.35 1.933-11.327 6.89-13.286 13.231-1.959 6.343-.644 13.243 3.511 18.42l55.222 68.815-55.545 73.064c-3.926 5.164-5.103 11.911-3.158 18.1 1.945 6.188 6.771 11.05 12.945 13.04l46.134 14.868v55.82c0 35.543 23.871 67.178 58.051 76.93l99.076 28.268c26.095 7.445 53.677 7.424 79.761-.06l98.176-28.17c26.986-7.743 47.548-28.225 55.003-54.788 2.985-10.635-3.217-21.676-13.852-24.66-10.63-2.989-21.675 3.217-24.66 13.852-3.68 13.11-13.969 23.259-27.523 27.147 0 0-104.721 29.878-108.031 30.492v-138.864l32.794 45.348c5.073 7.053 14.204 9.953 22.308 7.327l167-53.5c6.159-1.974 10.983-6.803 12.95-12.963 1.968-6.16.835-12.892-3.04-18.069zm-399.88 75.251 37.485-49.308 127.044 36.453-39.125 53.271zm182.99 168.758c-2.65-.539-106.975-30.194-106.975-30.194-17.089-4.876-29.025-20.694-29.025-38.465v-42.928l79.865 25.74c8.061 2.628 17.154-.216 22.254-7.197l33.881-46.131zm24.158-213.368c-1.395.057-2.789.261-4.159.614-1.346-.347-2.717-.549-4.088-.61l-89.911-25.799v-81.721h57.937c27.605 0 50.063-22.458 50.063-50.063 0-11.046-8.954-20-20-20s-20 8.954-20 20c0 5.549-4.515 10.063-10.063 10.063h-54.236c1.951-4.196 4.645-8.061 8.015-11.431l45.854-45.854c7.555-7.556 17.599-11.716 28.283-11.716h61.147c22.056 0 40 17.944 40 40v151.168zm72.551 85.014-38.437-53.15 128.084-36.544 36.814 49.182z"/></svg>