<svg id="Layer_1" enable-background="new 0 0 511.895 511.895" height="512" viewBox="0 0 511.895 511.895" width="512" xmlns="http://www.w3.org/2000/svg" xmlns:xlink="http://www.w3.org/1999/xlink"><linearGradient id="SVGID_1_" gradientUnits="userSpaceOnUse" x1="0" x2="511.895" y1="255.947" y2="255.947"><stop offset="0" stop-color="#87f1fc"/><stop offset=".2557" stop-color="#7fd4fb"/><stop offset=".5295" stop-color="#78bcfb"/><stop offset=".7844" stop-color="#74aefa"/><stop offset="1" stop-color="#73a9fa"/></linearGradient><path d="m511.895 372.857c0 11.046-8.954 20-20 20h-216v60.165c39.246 4.475 69.829 20.355 71.314 21.137 9.775 5.145 13.528 17.238 8.384 27.013-5.168 9.87-17.436 13.481-27.013 8.384-46.679-23.283-99.344-22.976-145.411.021-9.782 5.093-21.86 1.314-26.974-8.456-5.113-9.771-1.375-21.826 8.384-26.962 1.485-.782 32.069-16.663 71.315-21.137v-60.165h-216c-26.536-1.056-26.516-38.953 0-40h6.578l13.956-169.563c1.652-20.07 10.719-38.637 25.532-52.28 13.02-11.993 29.467-19.249 46.934-20.829v-36.328c0-6.422 3.084-12.453 8.29-16.214l30.716-22.184c1.133-46.845 68.059-47.411 69.994-.602.457 23.691-24.481 41.197-46.584 33.037l-22.416 16.189v25.773h238.736c20.138 0 39.386 7.514 54.198 21.157 14.813 13.644 23.88 32.21 25.532 52.28l8.471 102.922c.906 11.009-7.283 20.667-18.292 21.573-11.006.903-20.667-7.283-21.573-18.292l-8.471-102.922c-1.694-20.59-19.205-36.719-39.865-36.719h-271.471c-20.66 0-38.17 16.129-39.865 36.719l-13.686 166.283h425.286c11.046 0 20.001 8.954 20.001 20z" fill="url(#SVGID_1_)"/></svg>